# xmcd CD database file
#
# Track frame offsets:
#	182
#	14907
#	33335
#	49335
#	63600
#	81580
#	93815
#	111022
#	126122
#	144000
#
# Disc length: 2109 seconds
#
# Revision: 2
# Processed by: cddbd v1.4PL0 Copyright (c) Steve Scherf et al.
# Submitted via: CDex 1.50
#
DISCID=87083b0a
DTITLE=Doug Supernaw - The Encore Collection
DYEAR=1997
DGENRE=Country
TTITLE0=Honky Tonkin' Fool
TTITLE1=You Never Even Call Me By My Name
TTITLE2=Reno
TTITLE3=You're Gonna Bring Back Cheatin' Songs
TTITLE4=Red And Rio Grande
TTITLE5=What'll You Do About Me
TTITLE6=I Don't Call Him Daddy
TTITLE7=I Would Have Loved You All Night Long
TTITLE8=After The Storm
TTITLE9=Here's To Lyin'
EXTD=YEAR: 1997
EXTT0=
EXTT1=
EXTT2=
EXTT3=
EXTT4=
EXTT5=
EXTT6=
EXTT7=
EXTT8=
EXTT9=
PLAYORDER=
